<svg width="20" height="20" viewBox="0 0 20 20" fill="none" xmlns="http://www.w3.org/2000/svg">
<path d="M17.8572 8.57146V6.91384L10 1.42419L2.14297 6.91384V8.57146H3.57149V15H2.14297V18.5715H17.8572V15H16.4287V8.57146H17.8572ZM10 3.16697L15.6848 7.13865H4.31544L10 3.16697ZM15 8.57146V15H14.2857V8.57146H15ZM10.5883 12.3193C10.7979 12.3193 10.9684 12.4898 10.9684 12.6998C10.9684 12.9094 10.7979 13.0799 10.5883 13.0799H9.47501V12.3191H10.5883V12.3193ZM9.47501 11.2478V10.4871H10.5883C10.7979 10.4871 10.9684 10.6576 10.9684 10.8676C10.9684 11.0771 10.7979 11.2476 10.5883 11.2476H9.47501V11.2478ZM9.46446 9.4158H8.40352V14.1513H9.46446V15H7.14298V8.57146H9.46446V9.4158ZM10.5359 14.1513H10.5883C11.3887 14.1513 12.0399 13.5002 12.0399 12.6998C12.0399 12.3508 11.9109 12.0344 11.7049 11.7836C11.9109 11.533 12.0399 11.2166 12.0399 10.8676C12.0399 10.0672 11.3887 9.4156 10.5883 9.4156H10.5359V8.57126H12.8572V15H10.5359V14.1513ZM5.71426 8.57146V15H5.00001V8.57146H5.71426ZM16.4285 17.1427H3.57149V16.4285H16.4287V17.1427H16.4285Z" fill="#797979"/>
</svg>
