<svg width="20" height="20" viewBox="0 0 20 20" fill="none" xmlns="http://www.w3.org/2000/svg">
<path d="M14.7836 1.97152C13.502 0.698945 11.8053 0 10.0005 0C9.98411 0 9.96755 7.8125e-05 9.95118 0.00015625C8.18266 0.0126563 6.51012 0.70707 5.24161 1.95555C3.97282 3.20434 3.25219 4.86562 3.21258 6.63363C3.17094 8.48965 3.86544 10.2386 5.16801 11.5582C5.87391 12.2734 6.2788 13.2307 6.27907 14.1852V17.2093H6.98657C7.10583 18.768 8.41126 20 10 20C11.5888 20 12.8942 18.768 13.0134 17.2093H13.7209V14.1852C13.7212 13.2252 14.1192 12.2747 14.8131 11.5773C16.0874 10.2964 16.7892 8.59598 16.7892 6.78922C16.7892 4.96668 16.077 3.2557 14.7836 1.97152ZM10 18.6046C9.18137 18.6046 8.50219 17.9971 8.38899 17.2093H11.611C11.4978 17.9971 10.8187 18.6046 10 18.6046ZM12.3256 15.8139H7.67442V14.8837H12.3256V15.8139ZM13.8239 10.5932C13.0395 11.3816 12.5307 12.4093 12.3757 13.4884H7.62344C7.46641 12.4128 6.95266 11.3799 6.16106 10.578C5.12618 9.52957 4.57446 8.13992 4.60751 6.66488C4.63899 5.26195 5.21173 3.9427 6.22028 2.95004C7.2288 1.9575 8.55727 1.40535 9.96094 1.39547C11.4109 1.38605 12.7731 1.94141 13.8004 2.96164C14.8279 3.98195 15.3938 5.34121 15.3938 6.78918C15.3938 8.22461 14.8363 9.57559 13.8239 10.5932Z" fill="#797979"/>
</svg>
