<svg width="20" height="20" viewBox="0 0 20 20" fill="none" xmlns="http://www.w3.org/2000/svg">
<path d="M3.92558 15.9092C3.46621 15.1369 3.44804 14.2043 3.87715 13.4149L8.06015 5.71427H10.5453L12.8785 9.97696L14.1312 9.29122L12.1734 5.71427H12.8574V4.28575H12.2053L13.5715 1.42853H5L6.49082 4.28575H5.71425V5.71427H6.43379L2.62129 12.7326C1.94961 13.9697 1.97812 15.4301 2.69765 16.6397C3.41718 17.8492 4.68711 18.5715 6.09433 18.5715H7.83847V17.143H6.09433C5.1959 17.1428 4.38496 16.6818 3.92558 15.9092ZM7.35683 2.85724H11.3049L10.6217 4.28575H8.10234L7.35683 2.85724Z" fill="#797979"/>
<path d="M17.8572 14.2857V10.7142H9.28594V12.857H7.85742V16.4285H9.28594V18.5713H17.8572V15H16.4287V14.2857H17.8572ZM16.4287 12.1427V12.857H15.7145V12.1427H16.4287ZM10.7145 12.1427H14.2859V12.857H10.7145V12.1427ZM9.28594 14.2857H12.8574V15H9.28594V14.2857ZM10.7145 17.1427V16.4285H14.2857V17.1427H10.7145ZM16.4287 17.1427H15.7145V16.4285H16.4287V17.1427ZM14.2859 15V14.2857H15.0002V15H14.2859Z" fill="#797979"/>
</svg>
