<?xml version="1.0" encoding="UTF-8"?>
<svg id="_레이어_2" data-name="레이어 2" xmlns="http://www.w3.org/2000/svg" xmlns:xlink="http://www.w3.org/1999/xlink" viewBox="0 0 171.36 88.23">
  <defs>
    <style>
      .cls-1 {
        fill: url(#_무제_그라디언트_48);
      }

      .cls-2 {
        fill: #fff;
      }

      .cls-3 {
        fill: url(#_무제_그라디언트_698);
      }

      .cls-4 {
        fill: url(#_무제_그라디언트_632);
      }
    </style>
    <linearGradient id="_무제_그라디언트_48" data-name="무제 그라디언트 48" x1=".83" y1="47.1" x2="170.2" y2="47.1" gradientUnits="userSpaceOnUse">
      <stop offset="0" stop-color="#f44242"/>
      <stop offset="1" stop-color="#1a6de5"/>
    </linearGradient>
    <linearGradient id="_무제_그라디언트_698" data-name="무제 그라디언트 698" x1="166.45" y1="3.52" x2="116.29" y2="49.84" gradientUnits="userSpaceOnUse">
      <stop offset="0" stop-color="#107deb"/>
      <stop offset=".23" stop-color="#0c63cc"/>
      <stop offset=".74" stop-color="#042280"/>
      <stop offset="1" stop-color="#000058"/>
    </linearGradient>
    <linearGradient id="_무제_그라디언트_632" data-name="무제 그라디언트 632" x1="11.31" y1="80.95" x2="58.22" y2="37.86" gradientUnits="userSpaceOnUse">
      <stop offset="0" stop-color="#f44242"/>
      <stop offset="1" stop-color="#50142d"/>
    </linearGradient>
  </defs>
  <g id="_레이어_1-2" data-name="레이어 1">
    <g>
      <path class="cls-1" d="M170.04,48.68c.37,2.55.02,5.27-.04,6.51-.65,13.36-12.13,26.34-24.36,30.64-42.76,15.05-63.41-45.38-95.23-58.61C27.36,17.66,7.82,23.16.83,39.15.42,21.96,14.76,9.21,30.82,6.69,72.22.18,91.53,40.06,118.64,61.32c19.38,15.2,43.4,7.65,51.4-12.63Z"/>
      <path class="cls-2" d="M142.06,68.27c4.14-3.24,8.24-8.95,9.42-11.76,8.83-20.98-9.21-41.93-29.47-29.71-5.86,3.53-14.01,10.21-18.89,15.44l-15.32-15.62c23.48-30.08,55.68-35.87,75.78-11.17,17.36,21.34,3.72,49.98-21.52,52.83Z"/>
      <path class="cls-3" d="M142.06,68.27c4.14-3.24,8.24-8.95,9.42-11.76,8.83-20.98-9.21-41.93-29.47-29.71-5.86,3.53-14.01,10.21-18.89,15.44l-15.32-15.62c23.48-30.08,55.68-35.87,75.78-11.17,17.36,21.34,3.72,49.98-21.52,52.83Z"/>
      <path class="cls-2" d="M30.95,24.86c-4.17,3.66-4.47,4.17-6.52,6.94-14.7,19.91,8.57,45.39,29.86,28.9,2.58-2,10.7-7.71,16.38-14.59l14.85,15.99c-14.86,21.82-48.48,35.46-71.45,18.52C-11.09,62.08-.71,22.05,30.95,24.86Z"/>
      <path class="cls-4" d="M30.95,24.86c-4.17,3.66-4.47,4.17-6.52,6.94-14.7,19.91,8.57,45.39,29.86,28.9,2.58-2,10.7-7.71,16.38-14.59l14.85,15.99c-14.86,21.82-48.48,35.46-71.45,18.52C-11.09,62.08-.71,22.05,30.95,24.86Z"/>
    </g>
  </g>
</svg>