<?xml version="1.0" encoding="UTF-8"?>
<svg id="_레이어_2" data-name="레이어 2" xmlns="http://www.w3.org/2000/svg" xmlns:xlink="http://www.w3.org/1999/xlink" viewBox="0 0 188.32 96.96">
  <defs>
    <style>
      .cls-1 {
        fill: url(#_무제_그라디언트_48);
      }

      .cls-2 {
        fill: #fff;
      }

      .cls-3 {
        fill: url(#_무제_그라디언트_698);
      }

      .cls-4 {
        fill: url(#_무제_그라디언트_632);
      }
    </style>
    <linearGradient id="_무제_그라디언트_48" data-name="무제 그라디언트 48" x1=".91" y1="51.77" x2="187.05" y2="51.77" gradientUnits="userSpaceOnUse">
      <stop offset="0" stop-color="#f44242"/>
      <stop offset="1" stop-color="#1a6de5"/>
    </linearGradient>
    <linearGradient id="_무제_그라디언트_698" data-name="무제 그라디언트 698" x1="182.93" y1="3.87" x2="127.8" y2="54.77" gradientUnits="userSpaceOnUse">
      <stop offset="0" stop-color="#107deb"/>
      <stop offset=".23" stop-color="#0c63cc"/>
      <stop offset=".74" stop-color="#042280"/>
      <stop offset="1" stop-color="#000058"/>
    </linearGradient>
    <linearGradient id="_무제_그라디언트_632" data-name="무제 그라디언트 632" x1="12.43" y1="88.96" x2="63.98" y2="41.61" gradientUnits="userSpaceOnUse">
      <stop offset="0" stop-color="#f44242"/>
      <stop offset="1" stop-color="#50142d"/>
    </linearGradient>
  </defs>
  <g id="_레이어_1-2" data-name="레이어 1">
    <g>
      <path class="cls-1" d="M186.87,53.5c.4,2.8.02,5.79-.05,7.15-.71,14.68-13.33,28.94-26.78,33.68-46.99,16.54-69.69-49.88-104.66-64.41C30.07,19.41,8.6,25.45.92,43.03.46,24.13,16.22,10.13,33.87,7.35,79.37.2,100.6,44.03,130.38,67.39c21.3,16.71,47.7,8.41,56.49-13.88Z"/>
      <path class="cls-2" d="M156.12,75.03c4.54-3.56,9.06-9.84,10.36-12.93,9.7-23.05-10.12-46.08-32.39-32.66-6.45,3.88-15.4,11.22-20.76,16.97l-16.84-17.17c25.8-33.06,61.2-39.42,83.28-12.27,19.08,23.45,4.08,54.92-23.65,58.05Z"/>
      <path class="cls-3" d="M156.12,75.03c4.54-3.56,9.06-9.84,10.36-12.93,9.7-23.05-10.12-46.08-32.39-32.66-6.45,3.88-15.4,11.22-20.76,16.97l-16.84-17.17c25.8-33.06,61.2-39.42,83.28-12.27,19.08,23.45,4.08,54.92-23.65,58.05Z"/>
      <path class="cls-2" d="M34.02,27.32c-4.59,4.02-4.91,4.58-7.16,7.63-16.16,21.88,9.42,49.88,32.81,31.76,2.84-2.2,11.76-8.48,18-16.04l16.32,17.58c-16.33,23.98-53.28,38.97-78.52,20.36C-12.18,68.22-.78,24.24,34.02,27.32Z"/>
      <path class="cls-4" d="M34.02,27.32c-4.59,4.02-4.91,4.58-7.16,7.63-16.16,21.88,9.42,49.88,32.81,31.76,2.84-2.2,11.76-8.48,18-16.04l16.32,17.58c-16.33,23.98-53.28,38.97-78.52,20.36C-12.18,68.22-.78,24.24,34.02,27.32Z"/>
    </g>
  </g>
</svg>