<?xml version="1.0" encoding="UTF-8"?>
<svg id="_레이어_2" data-name="레이어 2" xmlns="http://www.w3.org/2000/svg" xmlns:xlink="http://www.w3.org/1999/xlink" viewBox="0 0 30.54 15.72">
  <defs>
    <style>
      .cls-1 {
        fill: url(#_무제_그라디언트_48);
      }

      .cls-2 {
        fill: #fff;
      }

      .cls-3 {
        fill: url(#_무제_그라디언트_698);
      }

      .cls-4 {
        fill: url(#_무제_그라디언트_632);
      }
    </style>
    <linearGradient id="_무제_그라디언트_48" data-name="무제 그라디언트 48" x1=".15" y1="8.39" x2="30.33" y2="8.39" gradientUnits="userSpaceOnUse">
      <stop offset="0" stop-color="#f44242"/>
      <stop offset="1" stop-color="#1a6de5"/>
    </linearGradient>
    <linearGradient id="_무제_그라디언트_698" data-name="무제 그라디언트 698" x1="29.66" y1=".63" x2="20.72" y2="8.88" gradientUnits="userSpaceOnUse">
      <stop offset="0" stop-color="#107deb"/>
      <stop offset=".23" stop-color="#0c63cc"/>
      <stop offset=".74" stop-color="#042280"/>
      <stop offset="1" stop-color="#000058"/>
    </linearGradient>
    <linearGradient id="_무제_그라디언트_632" data-name="무제 그라디언트 632" x1="2.01" y1="14.43" x2="10.38" y2="6.75" gradientUnits="userSpaceOnUse">
      <stop offset="0" stop-color="#f44242"/>
      <stop offset="1" stop-color="#50142d"/>
    </linearGradient>
  </defs>
  <g id="_레이어_1-2" data-name="레이어 1">
    <g>
      <path class="cls-1" d="M30.3,8.68c.07.45,0,.94,0,1.16-.12,2.38-2.16,4.69-4.34,5.46-7.62,2.68-11.3-8.09-16.97-10.44C4.88,3.15,1.39,4.13.15,6.98.08,3.91,2.63,1.64,5.49,1.19,12.87.03,16.31,7.14,21.14,10.93c3.45,2.71,7.73,1.36,9.16-2.25Z"/>
      <path class="cls-2" d="M25.32,12.17c.74-.58,1.47-1.6,1.68-2.1,1.57-3.74-1.64-7.47-5.25-5.3-1.05.63-2.5,1.82-3.37,2.75l-2.73-2.78c4.18-5.36,9.92-6.39,13.5-1.99,3.09,3.8.66,8.91-3.83,9.41Z"/>
      <path class="cls-3" d="M25.32,12.17c.74-.58,1.47-1.6,1.68-2.1,1.57-3.74-1.64-7.47-5.25-5.3-1.05.63-2.5,1.82-3.37,2.75l-2.73-2.78c4.18-5.36,9.92-6.39,13.5-1.99,3.09,3.8.66,8.91-3.83,9.41Z"/>
      <path class="cls-2" d="M5.52,4.43c-.74.65-.8.74-1.16,1.24-2.62,3.55,1.53,8.09,5.32,5.15.46-.36,1.91-1.37,2.92-2.6l2.65,2.85c-2.65,3.89-8.64,6.32-12.73,3.3C-1.98,11.06-.13,3.93,5.52,4.43Z"/>
      <path class="cls-4" d="M5.52,4.43c-.74.65-.8.74-1.16,1.24-2.62,3.55,1.53,8.09,5.32,5.15.46-.36,1.91-1.37,2.92-2.6l2.65,2.85c-2.65,3.89-8.64,6.32-12.73,3.3C-1.98,11.06-.13,3.93,5.52,4.43Z"/>
    </g>
  </g>
</svg>