<?xml version="1.0" encoding="UTF-8"?>
<svg id="_레이어_2" data-name="레이어 2" xmlns="http://www.w3.org/2000/svg" xmlns:xlink="http://www.w3.org/1999/xlink" viewBox="0 0 496.41 255.58">
  <defs>
    <style>
      .cls-1 {
        fill: url(#_무제_그라디언트_48);
      }

      .cls-2 {
        fill: #fff;
      }

      .cls-3 {
        fill: url(#_무제_그라디언트_698);
      }

      .cls-4 {
        fill: url(#_무제_그라디언트_632);
      }
    </style>
    <linearGradient id="_무제_그라디언트_48" data-name="무제 그라디언트 48" x1="2.39" y1="136.45" x2="493.05" y2="136.45" gradientUnits="userSpaceOnUse">
      <stop offset="0" stop-color="#f44242"/>
      <stop offset="1" stop-color="#1a6de5"/>
    </linearGradient>
    <linearGradient id="_무제_그라디언트_698" data-name="무제 그라디언트 698" x1="482.18" y1="10.19" x2="336.87" y2="144.37" gradientUnits="userSpaceOnUse">
      <stop offset="0" stop-color="#107deb"/>
      <stop offset=".23" stop-color="#0c63cc"/>
      <stop offset=".74" stop-color="#042280"/>
      <stop offset="1" stop-color="#000058"/>
    </linearGradient>
    <linearGradient id="_무제_그라디언트_632" data-name="무제 그라디언트 632" x1="32.75" y1="234.49" x2="168.65" y2="109.69" gradientUnits="userSpaceOnUse">
      <stop offset="0" stop-color="#f44242"/>
      <stop offset="1" stop-color="#50142d"/>
    </linearGradient>
  </defs>
  <g id="_레이어_1-2" data-name="레이어 1">
    <g>
      <path class="cls-1" d="M492.57,141.03c1.06,7.39.05,15.27-.12,18.86-1.88,38.71-35.14,76.29-70.58,88.77-123.86,43.6-183.69-131.47-275.87-169.77C79.27,51.15,22.66,67.09,2.42,113.41,1.22,63.61,42.76,26.69,89.28,19.38,209.22.52,265.16,116.05,343.67,177.63c56.15,44.04,125.72,22.17,148.9-36.6Z"/>
      <path class="cls-2" d="M411.52,197.78c11.98-9.38,23.87-25.93,27.3-34.08,25.58-60.76-26.67-121.46-85.37-86.08-16.99,10.24-40.59,29.57-54.72,44.74l-44.39-45.26C322.35-10.04,415.64-26.8,473.85,44.75c50.29,61.82,10.77,144.77-62.33,153.02Z"/>
      <path class="cls-3" d="M411.52,197.78c11.98-9.38,23.87-25.93,27.3-34.08,25.58-60.76-26.67-121.46-85.37-86.08-16.99,10.24-40.59,29.57-54.72,44.74l-44.39-45.26C322.35-10.04,415.64-26.8,473.85,44.75c50.29,61.82,10.77,144.77-62.33,153.02Z"/>
      <path class="cls-2" d="M89.66,72.02c-12.09,10.6-12.95,12.08-18.88,20.11-42.59,57.67,24.83,131.47,86.49,83.72,7.48-5.79,31.01-22.35,47.44-42.28l43.01,46.33c-43.04,63.2-140.45,102.71-206.97,53.66C-32.12,179.83-2.06,63.89,89.66,72.02Z"/>
      <path class="cls-4" d="M89.66,72.02c-12.09,10.6-12.95,12.08-18.88,20.11-42.59,57.67,24.83,131.47,86.49,83.72,7.48-5.79,31.01-22.35,47.44-42.28l43.01,46.33c-43.04,63.2-140.45,102.71-206.97,53.66C-32.12,179.83-2.06,63.89,89.66,72.02Z"/>
    </g>
  </g>
</svg>